<?xml version="1.0" encoding="UTF-8"?>
<svg fill="none" viewBox="0 0 78 90" xmlns="http://www.w3.org/2000/svg">
<g clip-path="url(#clip0_2:2)" fill="#46564E">
<path d="m9.9713 56.857c-0.66693-0.3851-0.6665-1.3479 7.8e-4 -1.7324l3.0481-1.7565c0.3094-0.1782 0.6903-0.178 0.9995 5e-4l15.66 9.045c0.6666 0.3851 1.5001-0.096 1.5001-0.8659v-46.075c0-0.7699-0.8335-1.251-1.5001-0.866l-15.66 9.0446c-0.3096 0.1788-0.6911 0.1787-1.0007-3e-4l-3.051-1.7642c-0.66624-0.3852-0.66583-1.3471 7.3e-4 -1.7318l24.761-14.289c0.6666-0.38473 1.4998 0.09641 1.4998 0.86612v63.556c0 0.7698-0.8334 1.251-1.5001 0.866l-24.759-14.297z"/>
<path d="m42.822 5.8718c-0.6667-0.38697-1.502 0.09403-1.502 0.86486v63.524c0 0.7713 0.8364 1.2522 1.503 0.8642l3-1.746c0.3077-0.179 0.497-0.5082 0.497-0.8642v-28.747c0-0.3574 0.1908-0.6877 0.5005-0.8663l21.719-12.523c0.3097-0.1786 0.5005-0.5089 0.5005-0.8663v-3.8465c0-0.3564-0.1897-0.6859-0.498-0.8649l-25.72-14.929zm4.9979 27.402c-0.6666 0.3848-1.4999-0.0963-1.4999-0.8661v-16.936c0-0.7698 0.8333-1.2509 1.4999-0.8661l14.67 8.4681c0.6667 0.3849 0.6667 1.3473 0 1.7322l-14.67 8.4681z"/>
<path d="m64.491 29.832c-0.3098 0.1785-0.5007 0.5088-0.5007 0.8664v21.805c0 0.3572-0.1906 0.6873-0.4999 0.866l-14.897 8.6026c-0.3094 0.1787-0.4999 0.5088-0.4999 0.866v3.5202c0 0.7699 0.8335 1.251 1.5002 0.8659l18.947-10.945c0.3093-0.1786 0.4998-0.5087 0.4998-0.8659v-26.472c0-0.7694-0.8326-1.2506-1.4993-0.8665l-3.05 1.7576z"/>
<path d="m10.937 84.11c-0.7993 0-1.463-0.198-1.991-0.594s-0.80666-0.9753-0.836-1.738c0-0.066 0.022-0.121 0.066-0.165 0.044-0.0513 0.10267-0.077 0.176-0.077h0.594c0.154 0 0.24934 0.0843 0.286 0.253 0.044 0.4693 0.22367 0.8177 0.539 1.045 0.31531 0.2273 0.71131 0.341 1.188 0.341 0.55 0 0.9717-0.1797 1.265-0.539 0.3007-0.3667 0.451-0.858 0.451-1.474v-3.905h-3.905c-0.07333 0-0.13566-0.022-0.187-0.066-0.044-0.0513-0.066-0.1137-0.066-0.187v-0.451c0-0.0733 0.022-0.132 0.066-0.176 0.05134-0.0513 0.11367-0.077 0.187-0.077h4.741c0.0807 0 0.143 0.0257 0.187 0.077 0.0513 0.044 0.077 0.1063 0.077 0.187v4.62c0 0.8947-0.253 1.606-0.759 2.134-0.4987 0.528-1.1917 0.792-2.079 0.792zm6.6317 0c-0.6967 0-1.2357-0.2237-1.617-0.671-0.3813-0.4547-0.572-1.056-0.572-1.804v-3.102c0-0.0733 0.022-0.132 0.066-0.176 0.0513-0.0513 0.1137-0.077 0.187-0.077h0.55c0.0733 0 0.132 0.0257 0.176 0.077 0.0513 0.044 0.077 0.1027 0.077 0.176v3.047c0 1.0927 0.4767 1.639 1.43 1.639 0.462 0 0.8287-0.143 1.1-0.429 0.2713-0.2933 0.407-0.6967 0.407-1.21v-3.047c0-0.0733 0.022-0.132 0.066-0.176 0.0513-0.0513 0.1137-0.077 0.187-0.077h0.55c0.0733 0 0.132 0.0257 0.176 0.077 0.044 0.044 0.066 0.1027 0.066 0.176v5.214c0 0.0733-0.022 0.1357-0.066 0.187-0.044 0.044-0.1027 0.066-0.176 0.066h-0.517c-0.0733 0-0.1357-0.022-0.187-0.066-0.044-0.0513-0.066-0.1137-0.066-0.187v-0.484c-0.2053 0.2787-0.4547 0.4913-0.748 0.638-0.2933 0.1393-0.6563 0.209-1.089 0.209zm6.0782 0c-0.3593 0-0.693-0.0733-1.001-0.22s-0.5537-0.3447-0.737-0.594c-0.176-0.2567-0.264-0.539-0.264-0.847 0-0.484 0.198-0.88 0.594-1.188 0.4033-0.3153 0.946-0.5207 1.628-0.616l1.639-0.231v-0.319c0-0.748-0.429-1.122-1.287-1.122-0.3227 0-0.5867 0.0697-0.792 0.209-0.2053 0.132-0.3593 0.2897-0.462 0.473-0.022 0.066-0.0513 0.1137-0.088 0.143-0.0293 0.0293-0.0733 0.044-0.132 0.044h-0.473c-0.066 0-0.1247-0.022-0.176-0.066-0.044-0.0513-0.066-0.11-0.066-0.176 0.0073-0.176 0.088-0.374 0.242-0.594 0.1613-0.2273 0.407-0.4217 0.737-0.583 0.33-0.1687 0.737-0.253 1.221-0.253 0.8213 0 1.4117 0.1943 1.771 0.583 0.3593 0.3813 0.539 0.858 0.539 1.43v3.564c0 0.0733-0.0257 0.1357-0.077 0.187-0.044 0.044-0.1027 0.066-0.176 0.066h-0.506c-0.0733 0-0.1357-0.022-0.187-0.066-0.044-0.0513-0.066-0.1137-0.066-0.187v-0.473c-0.1613 0.2347-0.396 0.4327-0.704 0.594s-0.7003 0.242-1.177 0.242zm0.231-0.825c0.4767 0 0.8653-0.154 1.166-0.462 0.308-0.3153 0.462-0.7663 0.462-1.353v-0.308l-1.276 0.187c-0.5207 0.0733-0.913 0.198-1.177 0.374-0.264 0.1687-0.396 0.385-0.396 0.649 0 0.2933 0.121 0.5207 0.363 0.682 0.242 0.154 0.528 0.231 0.858 0.231zm4.4963 0.715c-0.0733 0-0.1356-0.022-0.187-0.066-0.044-0.0513-0.066-0.1137-0.066-0.187v-5.214c0-0.0733 0.022-0.132 0.066-0.176 0.0514-0.0513 0.1137-0.077 0.187-0.077h0.517c0.0734 0 0.132 0.0257 0.176 0.077 0.0514 0.044 0.077 0.1027 0.077 0.176v0.484c0.2127-0.2713 0.462-0.4803 0.748-0.627 0.2934-0.1467 0.6564-0.22 1.089-0.22 0.704 0 1.2504 0.2273 1.639 0.682 0.396 0.4473 0.594 1.045 0.594 1.793v3.102c0 0.0733-0.0256 0.1357-0.077 0.187-0.044 0.044-0.1026 0.066-0.176 0.066h-0.55c-0.0733 0-0.1356-0.022-0.187-0.066-0.044-0.0513-0.066-0.1137-0.066-0.187v-3.047c0-0.5207-0.1283-0.924-0.385-1.21-0.2493-0.286-0.6123-0.429-1.089-0.429-0.462 0-0.8286 0.1467-1.1 0.44-0.2713 0.286-0.407 0.6857-0.407 1.199v3.047c0 0.0733-0.0256 0.1357-0.077 0.187-0.044 0.044-0.1026 0.066-0.176 0.066h-0.55zm9.5102 0c-0.0733 0-0.1357-0.022-0.187-0.066-0.044-0.0513-0.066-0.1137-0.066-0.187v-7.183c0-0.0807 0.022-0.143 0.066-0.187 0.0513-0.0513 0.1137-0.077 0.187-0.077h2.794c0.8287 0 1.4814 0.2017 1.958 0.605 0.4767 0.4033 0.715 0.9863 0.715 1.749s-0.2383 1.3457-0.715 1.749c-0.4693 0.396-1.122 0.594-1.958 0.594h-1.947v2.75c0 0.0733-0.0257 0.1357-0.077 0.187-0.0513 0.044-0.1137 0.066-0.187 0.066h-0.583zm2.739-3.927c0.5353 0 0.9387-0.121 1.21-0.363 0.2787-0.242 0.418-0.594 0.418-1.056s-0.1356-0.814-0.407-1.056c-0.2713-0.2493-0.6783-0.374-1.221-0.374h-1.903v2.849h1.903zm3.293 3.927c-0.0734 0-0.1357-0.022-0.187-0.066-0.044-0.0513-0.066-0.1137-0.066-0.187v-0.792c0-0.0733 0.022-0.132 0.066-0.176 0.0513-0.0513 0.1136-0.077 0.187-0.077h0.792c0.0733 0 0.1356 0.0257 0.187 0.077 0.0513 0.044 0.077 0.1027 0.077 0.176v0.792c0 0.0733-0.0257 0.1357-0.077 0.187-0.0514 0.044-0.1137 0.066-0.187 0.066h-0.792zm5.6877 0c-0.0733 0-0.1356-0.022-0.187-0.066-0.044-0.0513-0.066-0.1137-0.066-0.187v-7.183c0-0.0807 0.022-0.143 0.066-0.187 0.0514-0.0513 0.1137-0.077 0.187-0.077h2.497c1.1074 0 1.9067 0.2493 2.398 0.748 0.4914 0.4913 0.748 1.2357 0.77 2.233 0.0074 0.2127 0.011 0.4987 0.011 0.858s-0.0036 0.649-0.011 0.869c-0.022 0.6967-0.1393 1.265-0.352 1.705-0.2053 0.4327-0.5316 0.7553-0.979 0.968-0.4473 0.2127-1.0413 0.319-1.782 0.319h-2.552zm2.497-0.935c0.506 0 0.9057-0.0697 1.199-0.209 0.3007-0.1393 0.517-0.3593 0.649-0.66 0.1394-0.308 0.2164-0.7187 0.231-1.232 0.0147-0.44 0.022-0.715 0.022-0.825 0-0.1173-0.0073-0.3887-0.022-0.814-0.0146-0.726-0.187-1.254-0.517-1.584-0.33-0.3373-0.869-0.506-1.617-0.506h-1.617v5.83h1.672zm4.944 0.935c-0.0733 0-0.1356-0.022-0.187-0.066-0.044-0.0513-0.066-0.1137-0.066-0.187v-5.214c0-0.0733 0.022-0.132 0.066-0.176 0.0514-0.0513 0.1137-0.077 0.187-0.077h0.528c0.0734 0 0.132 0.0257 0.176 0.077 0.0514 0.044 0.077 0.1027 0.077 0.176v5.214c0 0.0733-0.0256 0.1357-0.077 0.187-0.044 0.044-0.1026 0.066-0.176 0.066h-0.528zm-0.055-6.545c-0.1173 0-0.176-0.0587-0.176-0.176 0-0.0587 0.0184-0.1063 0.055-0.143l0.825-0.99c0.0734-0.0807 0.132-0.1357 0.176-0.165 0.0514-0.0293 0.1284-0.044 0.231-0.044h0.748c0.066 0 0.1174 0.022 0.154 0.066 0.0367 0.0367 0.055 0.088 0.055 0.154 0 0.0513-0.0183 0.0953-0.055 0.132l-1.276 1.045c-0.0586 0.0513-0.1136 0.0843-0.165 0.099-0.0513 0.0147-0.1173 0.022-0.198 0.022h-0.374zm4.0611 6.655c-0.3593 0-0.693-0.0733-1.001-0.22s-0.5537-0.3447-0.737-0.594c-0.176-0.2567-0.264-0.539-0.264-0.847 0-0.484 0.198-0.88 0.594-1.188 0.4033-0.3153 0.946-0.5207 1.628-0.616l1.639-0.231v-0.319c0-0.748-0.429-1.122-1.287-1.122-0.3227 0-0.5867 0.0697-0.792 0.209-0.2053 0.132-0.3593 0.2897-0.462 0.473-0.022 0.066-0.0513 0.1137-0.088 0.143-0.0293 0.0293-0.0733 0.044-0.132 0.044h-0.473c-0.066 0-0.1247-0.022-0.176-0.066-0.044-0.0513-0.066-0.11-0.066-0.176 0.0073-0.176 0.088-0.374 0.242-0.594 0.1613-0.2273 0.407-0.4217 0.737-0.583 0.33-0.1687 0.737-0.253 1.221-0.253 0.8213 0 1.4117 0.1943 1.771 0.583 0.3593 0.3813 0.539 0.858 0.539 1.43v3.564c0 0.0733-0.0257 0.1357-0.077 0.187-0.044 0.044-0.1027 0.066-0.176 0.066h-0.506c-0.0733 0-0.1357-0.022-0.187-0.066-0.044-0.0513-0.066-0.1137-0.066-0.187v-0.473c-0.1613 0.2347-0.396 0.4327-0.704 0.594s-0.7003 0.242-1.177 0.242zm0.231-0.825c0.4767 0 0.8653-0.154 1.166-0.462 0.308-0.3153 0.462-0.7663 0.462-1.353v-0.308l-1.276 0.187c-0.5207 0.0733-0.913 0.198-1.177 0.374-0.264 0.1687-0.396 0.385-0.396 0.649 0 0.2933 0.121 0.5207 0.363 0.682 0.242 0.154 0.528 0.231 0.858 0.231zm4.1333 0.715c-0.0733 0-0.1356-0.022-0.187-0.066-0.044-0.0513-0.066-0.1137-0.066-0.187v-0.385c0-0.0587 0.0147-0.1173 0.044-0.176 0.0367-0.066 0.0734-0.1247 0.11-0.176l3.036-3.861h-2.838c-0.0733 0-0.1356-0.022-0.187-0.066-0.044-0.0513-0.066-0.1137-0.066-0.187v-0.363c0-0.0733 0.022-0.132 0.066-0.176 0.0514-0.0513 0.1137-0.077 0.187-0.077h3.916c0.0734 0 0.132 0.0257 0.176 0.077 0.0514 0.044 0.077 0.1027 0.077 0.176v0.407c0 0.0587-0.0183 0.1173-0.055 0.176-0.0293 0.0587-0.0623 0.1137-0.099 0.165l-3.003 3.85h3.124c0.0807 0 0.143 0.022 0.187 0.066s0.066 0.1063 0.066 0.187v0.363c0 0.0733-0.0256 0.1357-0.077 0.187-0.044 0.044-0.1026 0.066-0.176 0.066h-4.235z"/>
</g>
</svg>
